/* XPM */
static char * qe_32x32_xpm[] = {
"32 32 360 2",
"  	c None",
". 	c #000000",
"+ 	c #010101",
"@ 	c #202020",
"# 	c #555555",
"$ 	c #595959",
"% 	c #454545",
"& 	c #191919",
"* 	c #060606",
"= 	c #020202",
"- 	c #2D2D2D",
"; 	c #6B6B6B",
"> 	c #878787",
", 	c #A1A1A1",
"' 	c #B8B8B8",
") 	c #9D9D9D",
"! 	c #484848",
"~ 	c #080808",
"{ 	c #222222",
"] 	c #545454",
"^ 	c #767676",
"/ 	c #8F8F8F",
"( 	c #A8A8A8",
"_ 	c #C4C4C4",
": 	c #DEDEDE",
"< 	c #9B9B9B",
"[ 	c #1D1D1D",
"} 	c #030303",
"| 	c #272727",
"1 	c #535353",
"2 	c #6C6C6C",
"3 	c #7F7F7F",
"4 	c #909090",
"5 	c #9E9E9E",
"6 	c #BFBFBF",
"7 	c #D8D8D8",
"8 	c #C6C6C6",
"9 	c #4A4A4A",
"0 	c #040404",
"a 	c #252525",
"b 	c #585858",
"c 	c #727272",
"d 	c #949494",
"e 	c #A0A0A0",
"f 	c #B2B2B2",
"g 	c #CBCBCB",
"h 	c #D5D5D5",
"i 	c #5B5B5B",
"j 	c #050505",
"k 	c #1B1B1B",
"l 	c #747474",
"m 	c #838383",
"n 	c #999999",
"o 	c #A2A2A2",
"p 	c #ADADAD",
"q 	c #BCBCBC",
"r 	c #CFCFCF",
"s 	c #D9D9D9",
"t 	c #4C4C4C",
"u 	c #4F4F4F",
"v 	c #6A6A6A",
"w 	c #969696",
"x 	c #B1B1B1",
"y 	c #C0C0C0",
"z 	c #D6D6D6",
"A 	c #E2E2E2",
"B 	c #D7D7D7",
"C 	c #1F1F1F",
"D 	c #646464",
"E 	c #787878",
"F 	c #898989",
"G 	c #969595",
"H 	c #999795",
"I 	c #ACABAA",
"J 	c #E0E0E0",
"K 	c #EBEBEB",
"L 	c #090807",
"M 	c #625950",
"N 	c #A79788",
"O 	c #B6A594",
"P 	c #A39485",
"Q 	c #585048",
"R 	c #070706",
"S 	c #73685E",
"T 	c #7C7165",
"U 	c #60574E",
"V 	c #232323",
"W 	c #4D4D4D",
"X 	c #676767",
"Y 	c #707070",
"Z 	c #827C74",
"` 	c #A29487",
" .	c #B4A493",
"..	c #B8A897",
"+.	c #B8A796",
"@.	c #AC9E8E",
"#.	c #BCB3AA",
"$.	c #E0DFDD",
"%.	c #E8E8E8",
"&.	c #3F3F3F",
"*.	c #040403",
"=.	c #7F7366",
"-.	c #AD9D8B",
";.	c #756A5E",
">.	c #A49483",
",.	c #85796B",
"'.	c #2B2B2B",
").	c #4E4E4E",
"!.	c #5F5E5D",
"~.	c #928679",
"{.	c #A79A8B",
"].	c #D5D4D2",
"^.	c #A7A7A7",
"/.	c #453E35",
"(.	c #9D8E7A",
"_.	c #9D8D7A",
":.	c #948573",
"<.	c #74695B",
"[.	c #817464",
"}.	c #9C8C79",
"|.	c #796D5E",
"1.	c #262626",
"2.	c #7A7165",
"3.	c #9C8D7A",
"4.	c #928575",
"5.	c #938A7E",
"6.	c #928678",
"7.	c #9B9183",
"8.	c #CDCDCD",
"9.	c #212121",
"0.	c #020201",
"a.	c #736755",
"b.	c #897A64",
"c.	c #837460",
"d.	c #1F1B17",
"e.	c #030302",
"f.	c #554C3F",
"g.	c #887A64",
"h.	c #887A65",
"i.	c #695E4D",
"j.	c #54524F",
"k.	c #837661",
"l.	c #7F7465",
"m.	c #81807F",
"n.	c #949393",
"o.	c #8C8377",
"p.	c #897A65",
"q.	c #877864",
"r.	c #ABA8A5",
"s.	c #110F0B",
"t.	c #70634C",
"u.	c #74664F",
"v.	c #514737",
"w.	c #15130F",
"x.	c #71644D",
"y.	c #5A4F3D",
"z.	c #0A0A0A",
"A.	c #514C44",
"B.	c #7C756A",
"C.	c #888581",
"D.	c #807D78",
"E.	c #82807B",
"F.	c #807B72",
"G.	c #8F897F",
"H.	c #15120D",
"I.	c #64563E",
"J.	c #64573E",
"K.	c #352E21",
"L.	c #050403",
"M.	c #5E523A",
"N.	c #4D4330",
"O.	c #070707",
"P.	c #494338",
"Q.	c #65573E",
"R.	c #979083",
"S.	c #BBBBBB",
"T.	c #17140E",
"U.	c #695B40",
"V.	c #6A5C40",
"W.	c #6A5B41",
"X.	c #352E20",
"Y.	c #63553C",
"Z.	c #6A5B40",
"`.	c #514632",
" +	c #585246",
".+	c #A29B8C",
"++	c #0C0C0C",
"@+	c #13110C",
"#+	c #6F6044",
"$+	c #726345",
"%+	c #493F2C",
"&+	c #0F0D09",
"*+	c #6E6043",
"=+	c #716345",
"-+	c #574C35",
";+	c #2A2A2A",
">+	c #534D43",
",+	c #726245",
"'+	c #878279",
")+	c #939291",
"!+	c #858483",
"~+	c #888887",
"{+	c #969594",
"]+	c #9D9D9C",
"^+	c #B3B2B1",
"/+	c #B0B0AE",
"(+	c #CACAC9",
"_+	c #CECECE",
":+	c #0E0E0E",
"<+	c #040402",
"[+	c #6D5F42",
"}+	c #79694A",
"|+	c #6E5F43",
"1+	c #0C0A07",
"2+	c #383122",
"3+	c #5D5139",
"4+	c #393939",
"5+	c #4E4C47",
"6+	c #766648",
"7+	c #7B7059",
"8+	c #A0A09E",
"9+	c #979797",
"0+	c #939393",
"a+	c #B3B3B3",
"b+	c #BDBDBC",
"c+	c #A19E98",
"d+	c #847B69",
"e+	c #B7B7B7",
"f+	c #C9C9C9",
"g+	c #0D0D0D",
"h+	c #473E2B",
"i+	c #7F6F4D",
"j+	c #695C40",
"k+	c #3C3425",
"l+	c #4B422E",
"m+	c #7B6B4B",
"n+	c #7F6F4E",
"o+	c #62553C",
"p+	c #1A1A1A",
"q+	c #434343",
"r+	c #5F5F5F",
"s+	c #716751",
"t+	c #7F7155",
"u+	c #887E6A",
"v+	c #7F7664",
"w+	c #877D68",
"x+	c #807257",
"y+	c #7E6E4D",
"z+	c #837455",
"A+	c #C3C3C3",
"B+	c #090909",
"C+	c #0A0906",
"D+	c #746546",
"E+	c #857451",
"F+	c #867451",
"G+	c #706144",
"H+	c #80704E",
"I+	c #67593F",
"J+	c #131313",
"K+	c #656565",
"L+	c #767572",
"M+	c #7E7056",
"N+	c #89795A",
"O+	c #DCDCDC",
"P+	c #B6B6B6",
"Q+	c #16130D",
"R+	c #685B3F",
"S+	c #867551",
"T+	c #887653",
"U+	c #66593E",
"V+	c #14110C",
"W+	c #66593F",
"X+	c #141414",
"Y+	c #5E5E5E",
"Z+	c #7A7A7A",
"`+	c #888786",
" @	c #877F6D",
".@	c #87785A",
"+@	c #847350",
"@@	c #877652",
"#@	c #867552",
"$@	c #837350",
"%@	c #8B7C5D",
"&@	c #968B74",
"*@	c #ABA79D",
"=@	c #DFDFDF",
"-@	c #8A8A8A",
";@	c #030202",
">@	c #1D1912",
",@	c #12100B",
"'@	c #675A3F",
")@	c #111111",
"!@	c #404040",
"~@	c #636363",
"{@	c #AAA9A8",
"]@	c #B2B0AC",
"^@	c #CBC8C3",
"/@	c #C1BEBA",
"(@	c #A7A5A2",
"_@	c #DBDBDB",
":@	c #7C6C4B",
"<@	c #101010",
"[@	c #494949",
"}@	c #919191",
"|@	c #A3A3A3",
"1@	c #ACACAC",
"2@	c #C1C1C1",
"3@	c #D1D1D1",
"4@	c #B9B9B9",
"5@	c #D4D4D4",
"6@	c #DDDDDD",
"7@	c #D0D0D0",
"8@	c #808080",
"9@	c #A6A6A6",
"0@	c #D3D3D3",
"a@	c #E3E3E3",
"b@	c #EEEEEE",
"c@	c #868686",
"d@	c #C5C5C5",
"e@	c #F4F4F4",
"f@	c #E7E7E7",
"g@	c #282319",
"h@	c #2C261B",
"i@	c #242017",
"j@	c #343434",
"k@	c #606060",
"l@	c #959595",
"m@	c #9F9F9F",
"n@	c #F0F0F0",
"o@	c #FAFAFA",
"p@	c #7B7B7B",
"q@	c #414141",
"r@	c #A4A4A4",
"s@	c #AFAFAF",
"t@	c #E5E5E5",
"u@	c #BDBDBD",
"v@	c #383838",
"w@	c #737373",
"x@	c #A5A5A5",
"y@	c #B4B4B4",
"z@	c #C2C2C2",
"A@	c #CACACA",
"B@	c #E1E1E1",
"C@	c #E6E6E6",
"D@	c #363636",
"E@	c #6E6E6E",
"F@	c #9A9A9A",
"G@	c #2F2F2F",
"H@	c #AAAAAA",
"I@	c #242424",
"J@	c #2C2C2C",
"K@	c #CCCCCC",
"L@	c #6D6D6D",
"M@	c #8C8C8C",
"N@	c #ABABAB",
"O@	c #B5B5B5",
"P@	c #777777",
"Q@	c #515151",
"R@	c #5C5C5C",
"S@	c #505050",
". . . . . . . . . . . . . . . + @ # $ % & * = = = = = = + + + . ",
". . . . . . . . . . . . . . . = - ; > , ' ) ! ~ = = = = + + + . ",
". . . . . . . . . . . . . . . + { ] ^ / ( _ : < [ } = = + + + . ",
". . . . . . . . . . . . . . . = | 1 2 3 4 5 6 7 8 9 0 = = + + . ",
". . . . . . . . . . . . . . . } a b c 3 d e f g 7 h i j = + + . ",
". . . . . . . . . . . . . . . j k 9 l m n o p q r 7 s t } = + + ",
". . . . . . . . . . . . . . . + @ u v m w 5 e x y z A B C } + + ",
". . . . . . . . . . . . . . . + @ t D 3 E F G H I h J K e j + + ",
". . . . L M N O P Q R S T T U = V W X Y Z `  ...+.@.#.$.%.&.= + ",
". . . *.=.-.-.-.-.-.;.>.-.-.,.} '.).!.~.-.-.-.-.-.-.-.{.].^.0 + ",
". . . /.(._._.:.<.[.}.(.(._.|.} 1.W 2._._.3.4.5.6.}.(.(.7.8.9.+ ",
". . 0.a.b.b.c.d.. e.f.g.h.h.i.0 { j.k.h.g.l.m.> n.o.p.b.q.r.i + ",
". . s.t.u.u.v.. . . w.x.u.u.y.z.'.A.u.u.u.B.C.D.E.F.u.u.u.G.d = ",
". . H.I.J.J.K.. . . L.M.J.J.N.O.@ P.J.J.J.J.Q.J.J.J.J.Q.J.R.S.j ",
". . T.U.V.W.X.. . . e.Y.Z.Z.`.j |  +Z.V.Z.Z.V.Z.Z.Z.Z.V.V..+8 ++",
". . @+#+$+$+%+. . . &+*+=+$+-+j ;+>+$+,+=+'+)+!+~+{+]+^+/+(+_+:+",
". . <+[+}+}+|+1+. . 2+}+}+}+3+++4+5+6+}+}+7+8+9+0+a+b+c+d+e+f+g+",
". . . h+i+i+i+j+k+l+m+i+n+n+o+p+q+r+s+i+i+i+t+u+v+w+x+y+z+A+A+B+",
". . . C+D+E+E+E+F+E+G+H+E+E+I+J+% K+L+M+E+E+E+E+E+E+E+E+N+O+P+} ",
". . . . Q+R+S+T+E+U+V+m+E+E+W+X+% Y+Z+`+ @.@+@@@#@$@%@&@*@=@-@+ ",
". . . . . ;@@+>@,@0.. m+F+E+'@)@!@~@Z+/ o {@]@^@/@(@(+_@h : W + ",
". . . . . . . . . . . :@#@#@'@<@[@X m }@|@1@2@h 3@4@_+5@6@7@X++ ",
". . . . . . . . . . . :@#@#@'@)@! 2 8@4 9@f S.0@h z _@a@b@c@= + ",
". . . . . . . . . . . m+E+E+W+J+u c F 5 1@x d@s _@_@%.e@f@9.+ + ",
". . . . . . . . . . . g@h@h@i@j@k@Z+l@m@9@q f+r h A n@o@p@} + + ",
". . . . . . . . . . . . . . = q@2 m 0+r@s@S.d@_+s t@e@u@++= + . ",
". . . . . . . . . . . . . . * v@w@m n x@y@z@A@B B@C@A@| } = + + ",
". . . . . . . . . . . . . . ++D@E@F F@|@s@z@3@B@a@z@G@0 } + + + ",
". . . . . . . . . . . . . . } [@D -@n H@' 8 h O+r@I@j } = + + . ",
". . . . . . . . . . . . . . = J@E@m ) f z@7@K@L@:+0 0 } = + + . ",
". . . . . . . . . . . . . . 0 v@X M@N@y O@P@{ * 0 } } = = + + . ",
". . . . . . . . . . . . . . = | Q@R@S@- :+* 0 0 } 0 } = = + + . "};
