/* XPM */
static char * e_32x32_xpm[] = {
"32 33 516 2",
"  	c None",
". 	c #000000",
"+ 	c #050608",
"@ 	c #181A23",
"# 	c #13141C",
"$ 	c #111219",
"% 	c #101017",
"& 	c #101118",
"* 	c #12141C",
"= 	c #171822",
"- 	c #181923",
"; 	c #12131A",
"> 	c #202330",
", 	c #151620",
"' 	c #1A1C27",
") 	c #33364B",
"! 	c #36394D",
"~ 	c #35384C",
"{ 	c #373A4F",
"] 	c #3A3D53",
"^ 	c #3F435A",
"/ 	c #40435B",
"( 	c #20222F",
"_ 	c #07080B",
": 	c #313549",
"< 	c #222433",
"[ 	c #2F3244",
"} 	c #323446",
"| 	c #333648",
"1 	c #363A4D",
"2 	c #3C4055",
"3 	c #414459",
"4 	c #45485F",
"5 	c #474B62",
"6 	c #494D65",
"7 	c #4A4E67",
"8 	c #494E66",
"9 	c #464A62",
"0 	c #44475F",
"a 	c #363A4E",
"b 	c #232534",
"c 	c #060608",
"d 	c #090A0E",
"e 	c #212330",
"f 	c #292C3D",
"g 	c #34374A",
"h 	c #36384B",
"i 	c #383B4F",
"j 	c #3C4053",
"k 	c #404459",
"l 	c #454961",
"m 	c #4B4F69",
"n 	c #515670",
"o 	c #555A76",
"p 	c #595D7A",
"q 	c #5B5F7C",
"r 	c #565A76",
"s 	c #525670",
"t 	c #4B4E68",
"u 	c #4B506B",
"v 	c #2C2F3E",
"w 	c #040405",
"x 	c #060709",
"y 	c #2D3042",
"z 	c #34384D",
"A 	c #2B2E3E",
"B 	c #37394D",
"C 	c #3A3E52",
"D 	c #3E4257",
"E 	c #44485E",
"F 	c #515570",
"G 	c #585C79",
"H 	c #606484",
"I 	c #666B8B",
"J 	c #6A6F90",
"K 	c #6C7293",
"L 	c #6D7395",
"M 	c #6B7193",
"N 	c #686E8F",
"O 	c #636988",
"P 	c #5C617E",
"Q 	c #545974",
"R 	c #5A607D",
"S 	c #353848",
"T 	c #050505",
"U 	c #0C0D11",
"V 	c #363A4F",
"W 	c #35394B",
"X 	c #393D50",
"Y 	c #3B3E53",
"Z 	c #42465D",
"` 	c #484C64",
" .	c #50546E",
"..	c #575C78",
"+.	c #5F6483",
"@.	c #686D8E",
"#.	c #717699",
"$.	c #777DA0",
"%.	c #7B81A5",
"&.	c #7D84A9",
"*.	c #7F86AB",
"=.	c #7E84AA",
"-.	c #7A81A6",
";.	c #767C9F",
">.	c #6E7396",
",.	c #656B8B",
"'.	c #5D6280",
").	c #626786",
"!.	c #040404",
"~.	c #242636",
"{.	c #2F3345",
"].	c #3C3F53",
"^.	c #3E4256",
"/.	c #42455C",
"(.	c #474B64",
"_.	c #4E516C",
":.	c #5E6381",
"<.	c #6C7294",
"[.	c #404357",
"}.	c #1B1C24",
"|.	c #1D1E27",
"1.	c #4F5268",
"2.	c #9097BF",
"3.	c #8D94BC",
"4.	c #8E95BD",
"5.	c #8A92BA",
"6.	c #868DB5",
"7.	c #777CA0",
"8.	c #6D7295",
"9.	c #656A8A",
"0.	c #35394F",
"a.	c #323549",
"b.	c #3F4358",
"c.	c #41455B",
"d.	c #454A61",
"e.	c #4D526C",
"f.	c #555975",
"g.	c #686D8D",
"h.	c #73789C",
"i.	c #4C4F64",
"j.	c #030303",
"k.	c #030304",
"l.	c #07080A",
"m.	c #767B9C",
"n.	c #979EC7",
"o.	c #979FC7",
"p.	c #969EC7",
"q.	c #949BC4",
"r.	c #878DB5",
"s.	c #757C9E",
"t.	c #71779A",
"u.	c #4E5268",
"v.	c #121319",
"w.	c #2D3043",
"x.	c #44485F",
"y.	c #50536D",
"z.	c #5A5E7B",
"A.	c #646989",
"B.	c #6F7497",
"C.	c #797EA3",
"D.	c #46495E",
"E.	c #3D4055",
"F.	c #979EC6",
"G.	c #989FC8",
"H.	c #98A0CA",
"I.	c #989FC9",
"J.	c #959CC6",
"K.	c #9097C0",
"L.	c #8A91B8",
"M.	c #8288AF",
"N.	c #7A81A5",
"O.	c #484C61",
"P.	c #2C2E40",
"Q.	c #41455E",
"R.	c #484C63",
"S.	c #4A4E66",
"T.	c #595E7A",
"U.	c #676C8C",
"V.	c #73799C",
"W.	c #7E85AB",
"X.	c #888EB6",
"Y.	c #9197C0",
"Z.	c #939AC3",
"`.	c #969DC7",
" +	c #979DC7",
".+	c #949CC5",
"++	c #9098C0",
"@+	c #8B91BA",
"#+	c #838AB1",
"$+	c #6D7393",
"%+	c #20222B",
"&+	c #222534",
"*+	c #494E68",
"=+	c #4C5069",
"-+	c #4F546E",
";+	c #636888",
">+	c #73799B",
",+	c #8086AC",
"'+	c #8B92B9",
")+	c #939BC4",
"!+	c #62678B",
"~+	c #858BB2",
"{+	c #8F97BE",
"]+	c #949AC4",
"^+	c #8B92BA",
"/+	c #3B3E4E",
"(+	c #242734",
"_+	c #494E6B",
":+	c #4C516B",
"<+	c #50556F",
"[+	c #565B77",
"}+	c #606583",
"|+	c #6E7495",
"1+	c #7E84A9",
"2+	c #8A92B8",
"3+	c #9AA1CB",
"4+	c #121318",
"5+	c #0E0E13",
"6+	c #0D0E12",
"7+	c #0B0C10",
"8+	c #0A0B0E",
"9+	c #090A0D",
"0+	c #09090D",
"a+	c #555B7C",
"b+	c #767CA0",
"c+	c #7D83A8",
"d+	c #858BB1",
"e+	c #8B93BB",
"f+	c #9299C2",
"g+	c #9298C1",
"h+	c #9098BF",
"i+	c #8F97BF",
"j+	c #3A3D4E",
"k+	c #222431",
"l+	c #575C7A",
"m+	c #555A75",
"n+	c #5D627F",
"o+	c #686E8E",
"p+	c #868CB3",
"q+	c #9198C0",
"r+	c #99A0CA",
"s+	c #9DA4CF",
"t+	c #989EC8",
"u+	c #7C82AA",
"v+	c #767DA4",
"w+	c #6F759B",
"x+	c #646A8D",
"y+	c #5B6181",
"z+	c #545977",
"A+	c #505572",
"B+	c #6A7091",
"C+	c #71789B",
"D+	c #7B81A7",
"E+	c #8C92BA",
"F+	c #8F96BE",
"G+	c #9198C1",
"H+	c #1E202C",
"I+	c #555977",
"J+	c #585C78",
"K+	c #595E7B",
"L+	c #6E7496",
"M+	c #9CA3CE",
"N+	c #9AA2CC",
"O+	c #969DC6",
"P+	c #8F96BF",
"Q+	c #787FA2",
"R+	c #6E7395",
"S+	c #656A8B",
"T+	c #606582",
"U+	c #6B7192",
"V+	c #757B9E",
"W+	c #878EB4",
"X+	c #8C93BA",
"Y+	c #9399C3",
"Z+	c #3C3E4F",
"`+	c #1C1E2A",
" @	c #535875",
".@	c #666C8C",
"+@	c #737A9D",
"@@	c #8288AE",
"#@	c #9AA2CB",
"$@	c #9BA2CD",
"%@	c #999FC9",
"&@	c #9399C2",
"*@	c #757B9F",
"=@	c #636989",
"-@	c #5F6482",
";@	c #626887",
">@	c #696F90",
",@	c #7C83A9",
"'@	c #8F95BE",
")@	c #939AC2",
"!@	c #3C3F50",
"~@	c #1C1D29",
"{@	c #545976",
"]@	c #616684",
"^@	c #797FA3",
"/@	c #878EB5",
"(@	c #9CA2CD",
"_@	c #9BA1CC",
":@	c #979DC8",
"<@	c #9199C1",
"[@	c #8A91B9",
"}@	c #8389B0",
"|@	c #767DA0",
"1@	c #6E7497",
"2@	c #696E8F",
"3@	c #686D8F",
"4@	c #757A9F",
"5@	c #838AB0",
"6@	c #888FB7",
"7@	c #8E94BC",
"8@	c #9199C2",
"9@	c #3D4051",
"0@	c #1D1F2A",
"a@	c #565B78",
"b@	c #707597",
"c@	c #8C91BA",
"d@	c #989EC9",
"e@	c #9CA4CE",
"f@	c #9DA5D0",
"g@	c #9DA4CE",
"h@	c #989FCA",
"i@	c #949AC3",
"j@	c #8D95BC",
"k@	c #777CA1",
"l@	c #6F7598",
"m@	c #757BA0",
"n@	c #7980A5",
"o@	c #848AB1",
"p@	c #888EB5",
"q@	c #3E4152",
"r@	c #1F212E",
"s@	c #585D7C",
"t@	c #72789A",
"u@	c #8187AD",
"v@	c #9BA3CD",
"w@	c #A0A8D2",
"x@	c #A2A9D4",
"y@	c #A1A9D3",
"z@	c #4F5369",
"A@	c #4C5066",
"B@	c #494D62",
"C@	c #474A5F",
"D@	c #43465A",
"E@	c #404356",
"F@	c #3E4154",
"G@	c #3C3F52",
"H@	c #3D4052",
"I@	c #434659",
"J@	c #44475B",
"K@	c #45485C",
"L@	c #464A5E",
"M@	c #4D5166",
"N@	c #232633",
"O@	c #5B6180",
"P@	c #5E6482",
"Q@	c #666C8B",
"R@	c #9299C1",
"S@	c #9EA6D1",
"T@	c #A4ACD7",
"U@	c #A6AEDA",
"V@	c #A6ADD8",
"W@	c #040506",
"X@	c #3A3E51",
"Y@	c #5C627F",
"Z@	c #656B8A",
"`@	c #8389B1",
" #	c #939AC4",
".#	c #A1A9D4",
"+#	c #A7B0DA",
"@#	c #AAB2DE",
"##	c #AAB2DD",
"$#	c #0A0B0D",
"%#	c #262938",
"&#	c #565A77",
"*#	c #72779A",
"=#	c #8289AF",
"-#	c #A9B2DD",
";#	c #AEB5E1",
">#	c #AFB6E2",
",#	c #959AC0",
"'#	c #1C1D24",
")#	c #161821",
"!#	c #4D516B",
"~#	c #606482",
"{#	c #7F85AB",
"]#	c #9096BF",
"^#	c #A0A7D2",
"/#	c #A8B0DC",
"(#	c #AEB5E2",
"_#	c #B0B7E4",
":#	c #878DAF",
"<#	c #414558",
"[#	c #1F212D",
"}#	c #20212D",
"|#	c #36394E",
"1#	c #5A5F7C",
"2#	c #787FA3",
"3#	c #8B91B9",
"4#	c #9CA3CD",
"5#	c #A5AED8",
"6#	c #ACB4E0",
"7#	c #AEB6E2",
"8#	c #6D7391",
"9#	c #464B64",
"0#	c #313548",
"a#	c #242837",
"b#	c #393D54",
"c#	c #07070A",
"d#	c #535873",
"e#	c #707699",
"f#	c #8388AF",
"g#	c #949BC5",
"h#	c #A1A8D2",
"i#	c #A8AFDB",
"j#	c #ABB3DF",
"k#	c #525773",
"l#	c #40445D",
"m#	c #3A3D55",
"n#	c #353950",
"o#	c #32364B",
"p#	c #2F3246",
"q#	c #2F3245",
"r#	c #3D4159",
"s#	c #444961",
"t#	c #444960",
"u#	c #535872",
"v#	c #3A3D54",
"w#	c #585D79",
"x#	c #666B8C",
"y#	c #777EA2",
"z#	c #8A90B8",
"A#	c #9FA6D1",
"B#	c #A5ACD8",
"C#	c #A6AED9",
"D#	c #A4ABD7",
"E#	c #9EA5D0",
"F#	c #7F86AA",
"G#	c #74799D",
"H#	c #5F6383",
"I#	c #575C79",
"J#	c #525671",
"K#	c #454960",
"L#	c #464961",
"M#	c #4F536D",
"N#	c #0A0A0D",
"O#	c #5D6381",
"P#	c #8B93BA",
"Q#	c #969CC6",
"R#	c #9FA6D0",
"S#	c #959BC4",
"T#	c #757CA0",
"U#	c #6C7193",
"V#	c #626687",
"W#	c #5B5F7D",
"X#	c #505570",
"Y#	c #4C516A",
"Z#	c #494D66",
"`#	c #474B61",
" $	c #72779B",
".$	c #7F86AC",
"+$	c #979EC8",
"@$	c #959CC5",
"#$	c #8991B9",
"$$	c #8188AF",
"%$	c #797FA4",
"&$	c #626787",
"*$	c #585D7A",
"=$	c #545975",
"-$	c #525772",
";$	c #535771",
">$	c #636886",
",$	c #646889",
"'$	c #7D83A9",
")$	c #878DB4",
"!$	c #9096BE",
"~$	c #898FB7",
"{$	c #8289B1",
"]$	c #777DA1",
"^$	c #6F7699",
"/$	c #575C77",
"($	c #13141A",
"_$	c #5B607C",
":$	c #6B7091",
"<$	c #7C82A7",
"[$	c #868DB3",
"}$	c #7B83A8",
"|$	c #777DA2",
"1$	c #707598",
"2$	c #6C7194",
"3$	c #6F7597",
"4$	c #4F536A",
"5$	c #080808",
"6$	c #333543",
"7$	c #4B4F65",
"8$	c #464A5F",
"9$	c #626884",
"0$	c #8188AD",
"a$	c #7C84A9",
"b$	c #4F536B",
"c$	c #42465A",
"d$	c #44475D",
"e$	c #4F546A",
"f$	c #111216",
"g$	c #0D0D0D",
"h$	c #17191F",
"i$	c #383B4B",
"j$	c #363847",
"k$	c #333645",
"l$	c #323543",
"m$	c #313442",
"n$	c #323544",
"o$	c #343746",
"p$	c #373A49",
"q$	c #0B0C0F",
"                        . . . . . . . . . .                     ",
"                . . . . + @ # $ % & * = - . . .                 ",
"              . . ; > , ' ) ! ~ ~ { ] ^ / ( > _ . . .           ",
"          . . . : < [ } | 1 2 3 4 5 6 7 8 9 0 a b . . .         ",
"        . c d e f g h i j k l m n o p q q p r s t u v w .       ",
"      . x y z A B i C D E 7 F G H I J K L M N O P Q R S . T     ",
"      . U V W X Y D Z `  ...+.@.#.$.%.&.*.=.-.;.>.,.'.).. !.    ",
"    . . ~.{.].^./.(._.o :.<.[.}.|.1.2.3.4.4.5.6.*.7.8.9.j . .   ",
"    . 0.a.b.c.d.e.f.:.g.h.i.j.. . k.l.m.n.o.p.q.4.r.=.s.t.u..   ",
"  . v.w.x.4 ` y.z.A.B.C.D.. .     . . E.F.G.H.I.J.K.L.M.N.O..   ",
"  . P.Q.R.S. .T.U.V.W.X.. .         . . &.Y.Z.`. +.+++@+#+$+%+. ",
". . &+*+=+-+G ;+>+,+'+)+. . . . . . . . !+~+L.{+]+q.Z.K.^+3./+. ",
". (+_+:+<+[+}+|+1+2+q.3+4+5+6+U 7+8+9+0+a+b+c+d+e+K.f+g+h+i+j+. ",
". k+l+m+o n+o+b+p+q+r+s+t+u+v+w+x+y+z+A+z+B+C+D+~+E+F+G+f+f+j+. ",
". H+I+J+K+).L+c+'+.+3+M+N+O+P+p+Q+R+S+}+T+O U+V+,+W+X+2.Y+q.Z+. ",
". `+ @z.n+.@+@@@F+p.#@$@%@&@X+M.*@M =@-@-@;@>@V.,@d+L.'@)@O+!@. ",
". ~@{@P ]@U+^@/@]+r+(@_@:@<@[@}@|@1@2@I ,.3@>.4@&.5@6@7@8@O+9@. ",
". 0@a@'.O b@1+c@d@e@f@g@h@i@j@W+=.k@C+l@b@t.m@n@,+o@p@E+K.n.q@. ",
". r@s@:.,.t@u@F+v@w@x@y@z@A@B@C@D@E@F@G@G@H@F@E@I@J@K@L@B@M@%+. ",
". N@O@P@Q@V.}@R@S@T@U@V@. . . . . . . . . . . . . . . . . . .   ",
". W@X@Y@Z@h.`@ #.#+#@###$#. .                                   ",
"  . %#&#O *#=#f+.#-#;#>#,#'#. .                     . . . .     ",
"  . )#!#~#L {#]#^#/#(#_#>#:#<#7+. . .           . . . [#}#.     ",
"  . . |#1#@.2#3#4#5#6#7#7###v@8#9#A . . . . . . 7+0#a#b#n .     ",
"    . c#d#H e#f#g#h#i#j#@#i#x@r+/@7.k#l#m#n#o#p#q#r#s#t#u#.     ",
"    . . v#w#x#y#z# +A#B#C#D#E#`.3#F#G#2@H#I#J#!#6 5 K#L#M#.     ",
"      . N#k O#K {#P#Q#4#^#R#N+S#[@,+T#U#V#W#f.X#Y#7 Z#7 M#.     ",
"        . 6+`#;@ $.$[@G+n.+$@$g+#$$$%$*#3@&$Y@*$=$k#-$-$;$.     ",
"          . 8+>$,$h.'$)$3.!$!$7@~${$'$]$^$B+x#;@+.:.n+n+/$.     ",
"            . . ($_$:$<$,+~+r.p@[$}@,+}$|$V.1$>.2$M 3$/$4$.     ",
"              5$. . 6$7$8$9$p@p+5@0${#&.a$'$W.b$c$d$e$f$. g$    ",
"                  . . . . h$i$j$k$l$m$m$n$o$p$q$. . . .         ",
"                          . . . . . . . . . . .                 "};
